Surrogates 2009 720p BluRay x264 Mux AleX-EbP

General
Format : Matroska
File size : 5.54 GiB
Duration : 1h 28mn
Overall bit rate : 8 954 Kbps
Movie name : Surrogates (2009)
Encoded date : UTC 2010-02-01 11:38:23
Writing application : mkvmerge v3.1.0 ('Happy up here') built on Jan 19 2010 12:09:24
Writing library : libebml v0.7.9 + libmatroska v0.8.1

Video
ID : 1
Format : AVC
Format/Info : Advanced Video Codec
Format profile : High@L4.1
Format settings, CABAC : Yes
Format settings, ReFrames : 8 frames
Muxing mode : Container profile=Unknown@4.1
Codec ID : V_MPEG4/ISO/AVC
Duration : 1h 28mn
Bit rate : 5 308 Kbps
Width : 1 280 pixels
Height : 534 pixels
Display aspect ratio : 2.35:1
Frame rate : 23.976 fps
Resolution : 8 bits
Colorimetry : 4:2:0
Scan type : Progressive
Bits/(Pixel*Frame) : 0.324
Stream size : 3.28 GiB (59%)
Title : Video 720p BluRay x264
Language : English

Audio #1
ID : 2
Format : AC-3
Format/Info : Audio Coding 3
Codec ID : A_AC3
Duration : 1h 28mn
Bit rate mode : Constant
Bit rate : 448 Kbps
Channel(s) : 6 channels
Channel positions : Front: L C R, Surround: L R, LFE
Sampling rate : 48.0 KHz
Stream size : 284 MiB (5%)
Title : Italian DD5.1 @ 448 Kbps
Language : Italian

Audio #2
ID : 3
Format : DTS
Format/Info : Digital Theater Systems
Codec ID : A_DTS
Duration : 1h 28mn
Bit rate mode : Constant
Bit rate : 1 510 Kbps
Channel(s) : 6 channels
Channel positions : Front: L C R, Surround: L R, LFE
Sampling rate : 48.0 KHz
Resolution : 24 bits
Stream size : 957 MiB (17%)
Title : Italian DTS 5.1 @ 1.5 Mb/s
Language : Italian

Audio #3
ID : 4
Format : DTS
Format/Info : Digital Theater Systems
Codec ID : A_DTS
Duration : 1h 28mn
Bit rate mode : Constant
Bit rate : 1 510 Kbps
Channel(s) : 6 channels
Channel positions : Front: L C R, Surround: L R, LFE
Sampling rate : 48.0 KHz
Resolution : 24 bits
Stream size : 957 MiB (17%)
Title : English DTS 5.1 @ 1.5 Mb/s
Language : English

Text #1
ID : 5
Format : UTF-8
Codec ID : S_TEXT/UTF8
Codec ID/Info : UTF-8 Plain Text
Title : Italian Subs (Forced)
Language : Italian

Text #2
ID : 6
Format : UTF-8
Codec ID : S_TEXT/UTF8
Codec ID/Info : UTF-8 Plain Text
Title : Italian Subs
Language : Italian

Text #3
ID : 7
Format : UTF-8
Codec ID : S_TEXT/UTF8
Codec ID/Info : UTF-8 Plain Text
Title : English Subs
Language : English